<?xml version="1.0" encoding="UTF-8"?>
<svg xmlns="http://www.w3.org/2000/svg" id="Layer_1" viewBox="0 0 118.02 78.07"><style type="text/css">svg { width: 100% !important; height: 100% !important; } svg * { fill: #ffffff !important; }</style>
  <defs>
    
  </defs>
  <path class="cls-1" d="M117.67,18.3c-.78-.2-1.87.11-2.76.22-.72.04-3.95,1.12-3.58.73,1.43-1.53,3.72-1.6,4.95-2.1.66-.27,1.06-.21.84-.74-.23-.56.2-.72-1.22-.32-2.4.6-4.89,1.66-6.96,2.94-.24.15-.49.26-.75.37-1.41.61-2.45,2.04-3.7,2.96.01,0,.02,0,.04,0-.48.05-.7-.27-1.35.12-.94.04-1.36-.91-1.99-1.42-.72-.22-1.06-1.03-1.63-1.5-3.9-3.84-8.4-7.12-12.3-10.9-1.19-1.52-1.7-.07-2.88.04-.61-.3-1.23-.26-1.87-.29,0,0-.83-.49-.65.65.24,4.89,1.08,9.81,2.59,14.48.52,1.21.24,2.52-.87,3.25-.44.64.03,1.52-.47,2.16-.21.34-.66.63-.79,1-.14.4.7.64.84.91.26.4.77.6,1.14.86.3,0,.57-.25.87-.31,1.16-.52.69-1.91,1.04-2.89.26-.6.45-1.2.4-1.86-.24-1.9-.53-3.81-1.35-5.57-.17-1.68-.3-3.43-.94-5,.04-1.29-1.62-5.41-.32-5.82,4.3,3.75,8.04,8.82,12.25,12.85,1.29.94,2.77,3.44,3.77,3.14,2.63-.51,3.83-.03,4.14-1.81.46-.48.98-.21,1.39-.12,1.85-.14,3.69-.64,5.59-.82.94-.19,4.18.03,3.06-1.59-2.37-.32-4.9,1.09-7.24.66-.03-.46.55-.51.88-.51,1.81-.52,3.96-1.99,6.59-2.22.44,0,2.1-.16,2.57-.32.56-.09,1.01-.23,1.01-.23,0,0,.01-.69-.36-1.01ZM100.28,24.23c-4.13-3.89-8.9-8.6-13.09-12.95-.18-.49-.97-1.1-1.34-1.47-.19-.19-.02-.33.17-.5,2.37,2.09,5.52,4.73,7.6,7.27.13.15.23.23.56.53.04.04.35-.04.44.05.12.12.06.43.1.46,1.46,1.29,3.94,3.3,5.3,4.81.83.91.95,1.61.27,1.79ZM46.26,47.48c-.63.22-.11,2.1-.8,2.56-1.19.53-.78,2.09-1.69,2.83-.33.3-.61.71-1.11.57-1.26.77-2.61,1.05-4.06.49-.83-.25-4.19-1-3.16.75.42-.11.7.12.95.44.68.64,1.69.39,2.5.66,3.91,1.94,8.14-2.45,7.73-6.41-.29-.84.75-1.51-.37-1.9ZM55.57,13.6c.18.44.59.5.78.91.63.75,1.36-.31.6-.8-.15-.48.35-1.18.89-.97.29.11.62.57.92.29.64-.25.25-.85.02-1.3-.36-.72-1.34-.82-1.63-1.57-.82-.62-1.57-1.94-2.58-2.1-.42.23-1.27.46-1,1.04.83,1.43,1.21,3.04,1.98,4.5ZM60.83,32.27c-1.25,1.53-2.44,3.73-3.32,5.72-.03,2.15-.89,3.48-.69,5.37.71.26.88.04,1.3-.02,1.31-1.13-.24-6.76,5.65-12.24.24-.23.53-.77.86-.34.23.99-1.12,1.53-1.23,2.55-1.72,2.67-2.46,5.95-2.13,9.09.67.37.84-.02,1.3-.13.98-.75.71-3.55.85-4.53.17-1.69,2.46-5.59,3.25-6.85.39-.36.81-.56,1.26-.8.46-.12.83-.86,1.32-.56.33.44-.31.83-.59,1.11-.56.56-.65,1.32-.86,2.06-.05.17-.12.33-.2.49-.85,1.63-2.87,7-1.26,8.22.23.17.38.11.78.1,1.25-.03.08-2.65.61-3.87,2.17-3.97.98-6.6,4.74-9.13.94-.64,1.28.15.57.83-.83,1.86-2.73,6.9-2.05,8.51-.19.25-.39,1.11.12,1.38,0,.2.06.4.28.49,2.5.56,1.26-4.16,2.16-5.6.4-3.6.77-5.68,3.52-7.39.84-.19,1.82,0,2.57-.51.62-.83,1.65-1.26,2.03-2.3.49-1.02-.55-1.04-.11-2.16-.15-1.17-.12-2.33-.19-3.5-.58-1.37-1.55-2.87-2.35-4.11-1.04-.02-.58-.6-.91-.99-2.18-.53-4.79-.6-7-.89-.69-.59-1.68-.4-2.5-.73-.65-.18-.88-.87-1.59-.88-.44.1-2.44-.42-4.1-1.38-2.22-1.3-4.35-2.61-5.15-3.03-.44-.23-.82.38.11,1.66,1.01.64,1.71.7,2.24,1.54.08.48,2.28,1.61,3.44,1.67.77.65,1.37.48,1.44.51s-.38.27-.86,1.15c-.15.27-1.1.88-.44,1.12,1,.26,2.75-2.97,3.88-.19.52,1.3-2.75.37-3.74,2.78-.23.3-.6.48-.63-.05-.2-.31-.6-.33-.88-.54-.99-.74-2.03.54-3.03.66-2.2,1.42-3.19.18-4.4-1.75-1.44-2.39-2-5.17-3.15-7.6-.49-1.1-1.09-2.2-1.66-3.29-.34-.33-.76-1.01-.89-1.42q.22-.36.68-.39c.6.11,1.35,1.01,2.05.8.32-.02,1.48.35,1.3-.32-.41-1.42-2.82-1.56-3.9-2.25-.43-.28-1.11-.37-1.11-.37,0,0-.69.26-.96.69.13,2.86,2.23,5.43,3.12,8.03.74,1.88,1.1,3.85,1.92,5.66.09.16.52.34.55.52.04.25-.38.37-.23.62.72.65,1.01,1.71,1.69,2.44.36.55,1.43.21,2.05.38.74.39,1.49.98,2.37,1.06,1.22.07,1.37-1.58,2.42-1.83.47.18,1.17.56,1.69.24,1.34-.43.79.89.51,1.55.14.52-.53,1.6.16,1.82.76.13,1.21-.39,1.28-1.16-.02-.33-.02-.46.09-.59.07-.08.37.1.44,0,.08-.1.21-.11.28-.21.25-.38.47-.79.65-1.21,1.3-1.5,3.79-2.55,5.67-3.07,1.38.35,3.53-.39,4.34,1.08.32.96,1.64.64,1.85,1.57.43,1.97,1.15,4.65-.59,6.17-1.01.88-2.56.92-3.74,1.38-1,.39-1.79,1.02-2.91,1.17-2.32,1.02-4.97.13-7.18,1.17-.68.41-1.27.97-1.96,1.35-.57.32-1.14.46-1.77.59-.71.15-.85.77-1.18.88-.77.25-1.22-.74-1.96-.87-.75-.14-1.52-.1-2.28-.04-1.5.11-3.05.43-4.54.07-.68-.17-1.15-.68-1.77-.9-.42-.15-1.18-.34-1.18-.34,0,0-1.55.99-2.31.78-.53-.15-.38-1.15-1.29-1.34-.57-.12-1.21-.37-1.84-.42-.75-.06-1.52-.04-2.2-.41-.69-.38-1.2-1.09-1.96-1.34-.59-.2-1.3,0-1.67-.66-.71-1.26-1.56-1.97-3.03-2.13-.37-.04-.69.47-.94.28-.27-.21.12-.51-.11-.75-.57-.59-1.11-1.15-1.7-1.72-.96-1.52-2.37-1.14-3.61-2.02-.96-.68-1.48-2.02-2.84-1.96-1.8-.98-2.55-3.16-4.69-3.77-2.15-1.07-3.68-3.38-6.06-3.83-2.14-.63-3.51-3.93-5.87-4.13-1.41-.61-3.07-.61-4.28-1.63-.74-.25-1.74-.62-2.48-.7-.22.23-.09.7,0,1.03,1.37,1.3,3.24,1.78,4.9,2.64.95.48,2.23.35,2.87,1.34,1.07.88,2.58,1.93,3.62,2.93.59.17,1.29.16,1.78.59.27.47.49,1.01,1.15.89.68.26,4.85,3.6,5,3.75,2.76,1.78,5.36,3.65,8.01,5.52,2.92-.18,3.07,3.38,5.31,4.48,1.38.76,3.46.4,4.37,1.98.57.87-1.11.99-.42,1.81.45.93,1.47-.41,1.77,1.28.12.67.07,1.38-.16,2.02-.67,1.56-2.69,2.04-3.85,3.24-2.25.55-4.37,1.18-6.49,2.05-1.25.22-2.02-.14-2.54-.82-.15-.32-.48-1.35-.42-1.72-.57-3.08-1.83-6.09-3.32-8.86-.69-1.9-1.68-3.46-2.56-5.32l-2.04-2.51s0,0-.01,0c-.35-.42-.7-.8-1.06-1.14-.34-.16-.23-.3,0-.48.1-.08-.26-.39.02-.62.26-.21.6.14.68.01.15-.25.14-.55-.28-.94-.97-.9-1.39.28-3.5,1.21-.82.36-2.97-.36-2.48.7.09.17.6.54.28.82-.21.21-.7-.09-.94-.01-3.03.93-6.19,3.74-9.13,4.71.17-.79-.61.06-.61.22s.02.57.08,1.04c1.44.93,3.17-1.14,4.52-1.43,1.19-.36,2.18.06,3.09-.94.27-.37.45-.91.99-.91,3.43-1.07-.34,2.22-.42,3.45-.24.84-1.04,1.41-.92,2.34.17,1.38-.56,2.62-.97,3.05-.34.62-.3,1.12-.41,1.83.04.66,1.06.69,1.24.06.54-.9,1.54-2.51,1.73-3.63.21-1.27.89-1.98,1.13-2.99.06-.33,1.07-2.74,1.32-2.63.94.29-.43,4.76-.74,5.61.2.87-.97,3.94-.96,5.79,0,1.16.25,1.24.97,1.23,1.29-1.14.76-2.52,1.16-3.84.38-2.35,1.19-4.67,1.29-7.09-.08-.85-.15-1.94.36-2.71.12-.93-.06-1.68.45-2.52.85-.81,1.22.08,1.51.81.03.05.05.08.08.13.29.54.66,1.16.84,1.62.91.58.57,1.51,1.61,2.12.21.73.52,1.61,1.3,1.88,1.74,1.74.77,4.55,2.32,6.46.08.69.24,2.14.41,2.8.23.89.5,1.55.81,2.19.23.71.62,1.6,1.02,2.22.08.32.15.64.54.7,1.5.26,3.03.12,4.44-.39,1.06-.09,1.86-.94,2.95-.94,1.42.14,2.49-1.22,3.83-1.4,1.18-1.18,2.71-2.02,4.21-2.79.89-.41,1.47-1.87,2.45-2.01.43.21.05.56-.09.81-.12.52.44.88.65.36.27-.2.62-.26.78-.61.83-1.26,1.9-.39.77.61-.84,1.22-1.05,2.48-1.2,3.97-.01.15.16.68.12.92-.07.22-.47.65-.49.78-.28,2.26,1.38,4.22.43,6.5-.61,1.13-.69,2.44-1.92,3.22-.91.57-1.14,1.8-2.42,1.61-2.52-.63-6.12-.93-8.47-1.94-.17-.1-.35-.21-.53-.32-1.14-.79-3.38-1.24-4.44-1.99-.3-.06-1.55-.76-1.92-.96-.36-.25-.71-.22-1.08-.51h.03s-.06-.02-.06-.02c-.14-.11-.28-.22-.43-.33-2.56-1.28-4.47-3.57-7.53-2.51-.22.08-1.11,0-1.23.21-.46.84.14.69-.64,1.56-.27.12-.17.47-.36.71-.19.25-.16,1.6-.04,1.94.11.3.36.4.63.38.11.13.28.15.49,0,1.24-.73,1.33-.94,2.54-1.72.52-.6,2-.29,2.72-.16.74.15.79.46,1.26.96,2.46.59,4.39,2.5,6.7,3.45,2.12,1.71,5.3,1.7,7.99,2.06,1.88.95,4.15,1.52,6.25,1.5,1.01-.45,2.62-.69,2.62-2.05.84-1.36,1.38-2.76,1.99-4.22.24-.27.45-.71.28-.86-.34-.28-.43-.6-.42-1.06-.19-3.27-.77-6.64-.04-9.88.4-1.38,1.65-1.91,2.95-2.08.49-.17.98-.61,1.52-.34.61.27,2.94-1.2,2.83.4-.4,1.17-1.43.97-1.98,2.36-.33.42-.5.97-.94,1.29-.57.42.1,1.3-.27,1.81-.12.17-.17.48-.25.68-.65,1.69-.92,3.23-.53,5.06.68.32.91.29,1.15.18.81-.36.73-1.78.93-2.67.66-2.77,1.03-5.31,3.04-7.34.72-.5,1.88-2.76,2.61-1.7-.13.92,0,1.04-.4,1.67-.08.12.22.28.07.52-.18.28-.48.09-.56.21-.32.46-.96,1.5-1.29,2.06-.97,2.14-1.75,4.57-1.51,7.07.42.55.94.37,1.49.15.95-.61.38-2.97.57-4.11.43-2.48,5.27-9.72,6.18-7.72ZM82.87,59.22c-1.09-1.19.15-1.62-.82-1.54-2.06-.76-4.17-1.35-6.29-1.94-1.03-.28-2.06-.56-3.08-.87-1.04-.32-1.99-.86-3.02-1.18-1.12-.34-1.87-.63-3.01-.88-.79-.17-1.71-.2-2.38-.69-.88-.63-2.1-.46-3.03-.99-.35-.38-1.59,0-1.54-.72,4.6-1.56,8.9-3.57,13.78-3.97,2.03-.87,3.68-3.52,5.68-4.44,1.21-.44,1.6-1.94,2.71-2.52.76-.34,1.58.27,2.34.1.34-.17.38-1.3.59-1.58,1.02-.79-.72-1.82-1.21-2.37-.47-1-3.89,3.18-4.46,3.73-3.47,3.75-7.24,4.92-11.77,6.36-3.82,1.21-7.58,2.71-11.09,4.61-1.2,1.11,1.39.83,1.98,1.47.46.5-.41.61-.7.81-1.72.98,3.01,1.92,3.59,2.77,5.5,2.62,10.92,4.72,16.79,6.25,1.15.45.06,1.33.27,2.18-.26.85-.27,1.94-.55,2.81-.73,2.27-.61,5.16-1.18,6.84-.66,1.93-1.44,3.89-.69,4.34.34.21.85.31,1.85.25.35-.09.54-.41.42-.68-.18-.42.1-.56.13-.76.36-2.15,1.34-8.26,1.49-11.78-.13-.44.11-1.2.57-.6-.06,1.18-.15,2.54.12,3.72.15.66.15,1.38.16,2.09,0,.54.01,1.07.08,1.58.09.62.24,1.21.37,1.81.1.45-.37.81,0,1.06.49.33.28,1.19.47,1.61.12,1.2,1.5.84,1.79-.01,1.15-1.12-.53-3.36-.34-4.83-.46-2.38-.72-4.57-1.31-6.91.16-1.25-.22-2.92-1.11-3.9-7.1-2.11-13.88-4.33-20.68-7.35-.56-.14-.03-.85.18-.82,5.32,1.7,10.44,4.15,15.98,5.46.79.25,1.58.43,2.32.82,1.06.54,2.53.16,3.41,1.16.56.98.86,2.11,1.05,3.21.1.57.19,1.15.3,1.72.11.56.37,1.08.48,1.65.13.67.3,2.42,1.02,2.5.76.08,1.3.32,1.66-.38-.27-1.41-.91-3.36-1.42-4.75-.03-1.78-.96-3.03-1.88-4.44ZM22.83,41.92c2.87.89,7.33.98,9.33-1.56.19-1.65-1.56-.17-2.31-.11-1.81.79-4.49,1.17-6.21.22-.21-.31-.9.27-.65.7.07.41-.41.32-.16.75Z"/>
  <path class="cls-1" d="M17.32,46.14c-.26-.25-.42,0-.68.13-2.42,1.54-3.43,2.17-5.83,3.8-.28.25-2.01,1.81-1.56,1.99.51.54,1.16-.21,1.79-.21,1.47-.95,2.83-1.78,4.29-2.58,1.33-1.12,1.97-.25,2.93-1.8.92-.69-.62-1.02-.95-1.34ZM6.96,54.69c-1.77,1.91-3.36,3.86-6.28,5.56.08.95-.03,1.73.43,1.75.31,0,1.55-.84,1.99-1.14.42-.92.76-.49,1.11-.77,2.43-1.98,3.64-4.35,5.56-5.86.37-2.53-2.11-.44-2.81.47ZM8.72,51c.21-.36.07-1.15.07-1.15-1.56,0-4.11,1.51-5.49,2.13-.42.19-.87.28-1.33.23-.49-.05-.97-.04-.96.54.02.21,0,.68-.08.77-.25.26-.83-.17-.67.76,1.28,1.32,4.7-2.01,6.08-2.17-.29,1.06-1.58,1.72-2.21,2.18-.96,1.23-3.94,1.56-3.78,3.44-.06.47-.26,1.1.46.96,1.38-.77,6.72-5.63,7.91-7.68Z"/>
</svg>
