<?xml version="1.0" encoding="UTF-8"?>
<svg xmlns="http://www.w3.org/2000/svg" id="Layer_1" viewBox="0 0 500 167"><style type="text/css">svg { width: 100% !important; height: 100% !important; } svg * { fill: #ffffff !important; }</style>
  <defs>
    
  </defs>
  <g>
    <path class="cls-1" d="M380.7,71.07l-16.1-21.97c7.75-3.34,16.54-8.59,16.15-20.66-.57-17.41-12.45-21.84-30.66-21.32-2.21.06-14.5.08-17.08.08,0,0-.22,0-.28.21-.08.3.49.8.85,1.14,1.52,1.45,1.53,11.52,1.53,14.73l.06,44.55c0,3.21-.12,7.17-1.06,9.3-.77,1.75-1.25,1.74-1.16,2.08.07.22.28.21.28.21h13.37s.21,0,.28-.21c.1-.38-.41-.26-1.36-2.55-.63-1.52-.86-8.89-.86-8.89,0,0,.05-47.48.05-52.23,0-3.32,1.65-3.59,5.79-3.64,13.94-.17,20.12,7.13,20.2,17.26.08,11.3-6.04,16.63-18.41,17.49l19.53,27.8c1.79,2.71,5.39,6.17,11.3,6.24,2.33.02,5.22-.27,6.57-.55.35-.07.51-.47.28-.67-3.6-2.31-6.74-4.96-9.26-8.4Z"/>
    <path class="cls-1" d="M215.87,7.19c-.03,3.17,0,7.39,0,9.86,0,0,0,.35.22.35.39,0,1.12-.8,2.49-1.37,1.8-.74,7.2-.96,10.4-.96h11.39s-.02,39.85-.03,52.66c0,3.2-.03,7.17-1.02,9.28-.92,1.96-1.19,1.69-1.13,2.08.05.33.64.33.64.33h13.27s.24,0,.28-.24c.05-.36-.53-.33-1.37-2.64-.56-1.53-.87-5.68-.87-8.89-.03-13.2,0-48.73,0-52.58h11.39c3.2,0,8.61.22,10.4.97,1.36.56,2.09,1.36,2.49,1.37.22,0,.22-.35.22-.35,0-2.47.03-6.69,0-9.86h-58.77Z"/>
    <path class="cls-1" d="M326.43,68.36c-.47,0-1.15,1.05-2.96,1.71-1.54.56-5.23,1.06-8.43,1.06h-22.86s-.03-25.27-.03-25.27h16.1c3.21,0,9.58-.02,11.57.36,2.19.42,2.19,1.17,2.56,1.17.2,0,.21-.15.21-.15v-10.45s-.02-.23-.21-.23c-.44,0-.42.82-2.56,1.29-1.58.38-8.38.23-11.59.23l-16.09.04.03-23.18h21.33c3.21,0,6.87.47,8.4,1.06,1.38.52,2.1,1.37,2.5,1.37.26,0,.22-.33.22-.33V7.19h-43.99s-.34,0-.34.21c0,.25.33.32,1.13,2.08.97,2.13,1.04,5.84,1.04,9.05,0,5.99,0,43.51,0,49.51,0,3.21-.06,6.97-1.04,9.08-.77,1.66-1.12,1.79-1.13,2.08,0,.21.29.21.29.21l44.98-.06,1.11-10.56s.08-.43-.25-.43Z"/>
    <path class="cls-1" d="M498.5,78.65l-1.56-1.32c-2.15-1.94-4.06-4.12-5.7-6.5l-19.34-28.23,21.71-30.39c.86-1.21,1.84-2.33,2.91-3.36l1.14-1.09c.17-.23,0-.56-.28-.56h-15.22s-.5,0-.5,0c0,0-.21-.01-.28.21-.06.23.75.72.68,2.45-.07.61-.17,1.25-.34,1.88-.11.37-.25.77-.42,1.21-.07.14-.14.28-.21.42-1.3,2.24-13.28,20.49-14.11,21.3-.8-.8-12.62-18.61-14.31-21.42,0-.02,0-.03-.02-.05-1.9-4.56-.09-5.45-.18-5.79-.07-.22-.28-.21-.28-.21h-13.1s-13.1,0-13.1,0c0,0-.21-.01-.28.21-.09.34,1.69,1.22-.15,5.71-1.77,2.96-13.63,21.55-14.43,22.35-.83-.81-13.59-19.98-14.9-22.25,0,0,0-.01,0-.02-1.9-4.56-.09-5.45-.18-5.79-.07-.22-.28-.21-.28-.21h-13.38s0,0,0,0h-3.02c-.23,0-.37.26-.23.45l1.37,1.17c1.54,1.31,2.9,2.81,4.06,4.47l21.28,30.66v1.35h0v1.92s0,16.75,0,16.75c0,3.21-.18,11.05-1.17,13.16-.95,2.01-1.19,1.66-1.18,2.03,0,.25.33.27.33.27h13.26s.32-.05.33-.27c0-.37-.23-.02-1.18-2.03-1-2.11-1.17-9.95-1.17-13.16v-16.72s0-3.3,0-3.3c0,0,19.7-30.79,23.12-34.27,4.68,4.87,23.23,33.43,23.23,33.43l-20.58,29.62c-1.45,2.09-3.22,3.94-5.23,5.49l-.43.33c-.19.25,0,.61.31.61h15.44s0,0,0,0h.12s.21.01.28-.21c.06-.22-.67-.67-.69-2.19.09-1.07.46-2.23,1.17-3.46,1.29-2.23,13.68-21.17,14.52-21.99.81.82,13.3,19.76,14.59,21.99.54.93.87,1.81,1.05,2.64.29,2.19-.7,2.75-.64,3.01.07.22.28.21.28.21h.19s0,0,0,.01h16.48c.26,0,.41-.29.25-.5Z"/>
    <path class="cls-1" d="M70.78,78.38c-.6-.63-1.13-1.32-1.57-2.07-1.28-2.19-3.9-6.77-5.03-9.28L38.12,8.36q-1.5-3.12-3.02,0l-26.07,58.67c-1.68,3.73-3.39,7.19-4.93,9.49-.77,1.15-1.8,2.02-2.14,2.49-.12.17,0,.4.21.4h13.31s.21.01.28-.21c.07-.27-1.1-.91-.54-3.56,0-.03.02-.06.02-.1.04-.19.09-.38.15-.58,0,0,0,0,0,0,.13-.46.31-.97.55-1.54.19-.49,20.03-45.07,20.03-45.07.55-1.18.69-1.18,1.23,0,0,0,18.58,41.77,19.93,44.84.02.07.04.15.07.23.35.84.57,1.55.7,2.16,0,.02.01.05.02.07.03.13.04.24.06.36.06.42.09.82.08,1.21-.07,1.36-.74,1.78-.68,1.99.07.22.28.21.28.21h13.24c.29,0,.46-.33.3-.57-.07-.1-.23-.28-.41-.47Z"/>
    <polygon class="cls-1" points="201.28 23.38 214.33 .21 201.28 .21 201.28 23.38"/>
    <path class="cls-1" d="M123.16,71.07l-16.1-21.97c7.75-3.34,16.54-8.59,16.16-20.66-.57-17.41-12.45-21.84-30.66-21.32-2.21.06-14.5.08-17.08.08,0,0-.22,0-.28.21-.08.3.49.8.85,1.14,1.52,1.45,1.53,11.52,1.53,14.73l.06,44.55c0,3.21-.12,7.17-1.06,9.3-.77,1.75-1.25,1.74-1.16,2.08.07.22.28.21.28.21h13.37s.21,0,.28-.21c.1-.38-.41-.26-1.36-2.55-.63-1.52-.86-8.89-.86-8.89,0,0,.05-47.48.05-52.23,0-3.32,1.65-3.59,5.79-3.64,13.94-.17,20.12,7.13,20.2,17.26.08,11.3-6.04,16.63-18.41,17.49l19.53,27.8c1.79,2.71,5.39,6.17,11.3,6.24,2.33.02,5.22-.27,6.57-.55.35-.07.51-.47.28-.67-3.6-2.31-6.74-4.96-9.26-8.4Z"/>
    <path class="cls-1" d="M193.97,65.54c-6.43,6.75-16.81,8.94-25.67,8.93-17.27-.02-29.37-15.47-29.57-31.08-.24-19.56,12.35-31.44,30.86-31.44,6.84,0,18.36,4.39,22.67,11.47.44.79,1.26,3.55,1.26,3.55.04.15.18.34.54.29.3-.04.29-.29.29-.29V9.8c0-.28-.22-.5-.5-.5-1.05.02-3.2-.08-3.53-.11-2.36-.27-10.95-3.01-20.26-3.13-24.52-.33-40.61,13.43-41.15,37.33-.49,22.22,15.86,37.44,40.57,37.44,6.72,0,16.02-1.18,22.38-2.65l2.89-12.22c.11-.45-.45-.75-.77-.42Z"/>
  </g>
  <path class="cls-1" d="M241.9,92.78h-22.14s-.34.06-.34.28c0,.39.25.02,1.25,2.14.65,1.38.97,5.09,1.12,8.52v50.18c-.09,3.25-.5,7.23-1.08,8.69-.84,2.14-1.28,1.71-1.29,2.14,0,.28.43.28.43.28l21.72.03c24.47,0,40.96-15.25,40.96-36.77s-15.28-35.5-40.62-35.5ZM239.27,158.3c-.62,0-1.24-.01-1.86-.04-3.41-.13-6.12-2.91-6.12-6.32v-45.63c0-3.25,2.47-5.95,5.71-6.29,1.38-.15,2.75-.22,4.13-.22,18.24,0,31.33,10.67,31.33,29.79s-16.91,28.71-33.19,28.71Z"/>
  <path class="cls-1" d="M498.27,92.8s-2.56,0-2.56,0h-12.02s-.21-.01-.28.21c-.09.32,1.57,1.16.04,5.24-.12.32-.28.62-.46.92-2.47,4.03-13.42,21.15-14.19,21.91-.41-.4-.73-.96-1.06-1.43-.73-1.03-1.44-2.08-2.16-3.12-.94-1.38-1.88-2.77-2.81-4.16-1.01-1.51-2.02-3.02-3.03-4.53-.94-1.41-1.87-2.82-2.8-4.23-.72-1.09-1.43-2.18-2.13-3.27-.38-.59-.79-1.11-1.05-1.77s-.48-1.3-.63-1.97c-.17-.78-.25-1.63-.02-2.41.09-.29.22-.55.38-.8.05-.08.22-.26.19-.37-.07-.22-.28-.21-.28-.21,0,0-13.41,0-13.41,0h-3.02c-.23,0-.37.26-.23.45h.01c2.45,2.09,4.62,4.48,6.45,7.11l20.3,29.2-.02,20.02c0,3.21-.18,11.05-1.17,13.16-.95,2.01-1.18,1.66-1.18,2.03,0,.21.33.27.33.27h13.05s.41,0,.41-.27c0-.41-.42,0-1.22-2.02-.61-1.53-1.02-5.98-1.02-9.18l.04-24s15.34-23.92,21.32-31.98c.93-1.15,1.96-2.21,3.08-3.17l1.38-1.17c.14-.19,0-.45-.23-.45Z"/>
  <path class="cls-1" d="M431.57,162.65c-.29-.75-.57-2.12-.73-3.58-.09-.86-3.89-42.87-4.84-53.35-.15-1.71-.18-3.44-.04-5.15.19-2.3.48-4.35.92-5.3,1-2.12,1.25-1.75,1.25-2.14,0-.22-.34-.28-.34-.28h-15.97v.16c0,2.3-.72,4.49-1.55,6.78l-16.15,49.72-21.21-51.58c-.62-1.54-1.45-3.17-1.45-4.93v-.15h-14.82s-.34.05-.34.27c0,.39.25.02,1.25,2.14.48,1.01.78,3.27.96,5.75.13,1.71.08,3.43-.12,5.14,0,0-4.48,51.2-4.7,52.92-.19,1.46-.44,2.83-.73,3.58-.84,2.14-1.28,1.71-1.29,2.14,0,.28.43.28.43.28h13.49s.34-.06.34-.28c0-.17-.05-.2-.19-.35-.16-.29-.48-.69-.79-1.24-.08-.16-.17-.34-.27-.55-.01-.02-.02-.04-.03-.06-.05-.11-.09-.21-.13-.32-.02-.07-.05-.14-.08-.21-.42-1.08-.67-2.18-.74-3.33v-.12c-.04-.57-.03-1.11.01-1.65l4.17-50.3,18.45,46.45c2.47,6.14,3.92,9.09,9.08,13.25l21.01-61.12,4.3,51.73c.04.52.05,1.04.02,1.56,0,.08,0,.16-.01.24-.07,1.14-.32,2.24-.73,3.3-.03.07-.05.14-.08.21-.04.11-.09.22-.13.32-.01.02-.02.04-.03.06-.1.21-.19.38-.27.55-.31.55-.63.95-.79,1.24-.14.16-.19.18-.19.35,0,.22.34.28.34.28h13.58s.43,0,.43-.28c0-.43-.44,0-1.29-2.14Z"/>
  <path class="cls-1" d="M338.83,153.98c-.47,0-1.15,1.06-2.96,1.71-1.54.56-5.23,1.06-8.44,1.06h-22.87s-.03-24.21-.03-24.21h16.11c3.21,0,9.59-.02,11.58.36,2.19.42,2.19,1.17,2.57,1.17.2,0,.21-.15.21-.15v-10.45s-.02-.23-.21-.23c-.44,0-.42.82-2.57,1.29-1.58.38-8.39.23-11.59.23l-16.09.04.03-24.25h21.33c3.21,0,6.87.47,8.4,1.06,1.38.52,2.1,1.37,2.5,1.37.26,0,.22-.33.22-.33v-9.84h-44.01s-.34,0-.34.21c0,.25.32.32,1.13,2.08.97,2.13,1.04,5.85,1.04,9.05,0,7.06,0,44.6,0,49.52,0,3.21-.06,6.97-1.04,9.09-.77,1.66-1.12,1.79-1.13,2.08,0,.21.29.21.29.21l45-.06,1.11-10.56s.08-.43-.25-.43Z"/>
  <path class="cls-1" d="M211.25,164c-.6-.63-1.13-1.32-1.57-2.07-1.28-2.19-3.9-6.77-5.03-9.28l-26.07-58.67q-1.5-3.12-3.02,0l-26.07,58.67c-1.68,3.73-3.39,7.19-4.93,9.49-.77,1.15-1.8,2.02-2.14,2.49-.12.17,0,.4.21.4h13.31s.21.01.28-.21c.07-.27-1.1-.91-.54-3.56,0-.03.02-.06.02-.1.04-.19.09-.38.15-.58,0,0,0,0,0,0,.13-.46.31-.97.55-1.54.19-.49,20.03-45.07,20.03-45.07.55-1.18.69-1.18,1.23,0,0,0,18.58,41.77,19.93,44.84.02.07.04.15.07.23.35.84.57,1.55.7,2.16,0,.02.01.05.02.07.03.13.04.24.06.36.06.42.09.82.08,1.21-.07,1.36-.74,1.78-.68,1.99.07.22.28.21.28.21h13.24c.29,0,.46-.33.3-.57-.07-.1-.23-.28-.41-.47Z"/>
  <path class="cls-1" d="M70.43,164c-.6-.63-1.13-1.32-1.57-2.07-1.28-2.19-3.9-6.77-5.03-9.28l-26.07-58.67q-1.5-3.12-3.02,0l-26.07,58.67c-1.68,3.73-3.39,7.19-4.93,9.49-.77,1.15-1.8,2.02-2.14,2.49-.12.17,0,.4.21.4h13.31s.21.01.28-.21c.07-.27-1.1-.91-.54-3.56,0-.03.02-.06.02-.1.04-.19.09-.38.15-.58,0,0,0,0,0,0,.13-.46.31-.97.55-1.54.19-.49,20.03-45.07,20.03-45.07.55-1.18.69-1.18,1.23,0,0,0,18.58,41.77,19.93,44.84.02.07.04.15.07.23.35.84.57,1.55.7,2.16,0,.02.01.05.02.07.03.13.04.24.06.36.06.42.09.82.08,1.21-.07,1.36-.74,1.78-.68,1.99.07.22.28.21.28.21h13.24c.29,0,.46-.33.3-.57-.07-.1-.23-.28-.41-.47Z"/>
  <path class="cls-1" d="M135.85,151.16c-6.43,6.75-16.81,8.94-25.67,8.93-17.27-.02-29.37-15.47-29.57-31.08-.24-19.56,12.35-31.44,30.86-31.44,6.84,0,18.36,4.39,22.67,11.47.44.79,1.26,3.55,1.26,3.55.04.15.18.34.54.29.3-.04.29-.29.29-.29v-17.18c0-.28-.22-.5-.5-.5-1.05.02-3.2-.08-3.53-.11-2.36-.27-10.95-3.01-20.26-3.13-24.52-.33-40.61,13.43-41.15,37.33-.49,22.22,15.86,37.44,40.57,37.44,6.72,0,16.02-1.18,22.38-2.65l2.89-12.22c.11-.45-.45-.75-.77-.42Z"/>
</svg>
